<?xml version="1.0" encoding="iso-8859-1"?>
<!-- Generator: Adobe Illustrator 18.1.0, SVG Export Plug-In . SVG Version: 6.00 Build 0)  -->
<!DOCTYPE svg PUBLIC "-//W3C//DTD SVG 1.1//EN" "http://www.w3.org/Graphics/SVG/1.1/DTD/svg11.dtd">
<svg version="1.1" id="Layer_1" xmlns="http://www.w3.org/2000/svg" xmlns:xlink="http://www.w3.org/1999/xlink" x="0px" y="0px"
	 viewBox="0 0 100 100" style="enable-background:new 0 0 100 100;" xml:space="preserve">
<g>
	<path style="fill:#FFFFFF;" d="M50.069,64.167L50.069,64.167c-1.223,0-2.017-1.403-2.103-1.562L37.639,43.497
		c-0.555-1.028-0.632-1.893-0.228-2.571c0.652-1.094,2.252-1.125,2.433-1.125h20.34c1.169,0,1.967,0.343,2.371,1.022
		c0.651,1.094-0.081,2.516-0.167,2.675L52.061,62.605C51.5,63.641,50.83,64.167,50.069,64.167z M39.844,40.999
		c-0.281,0.002-1.145,0.105-1.404,0.542c-0.214,0.361,0.02,0.952,0.254,1.385l10.327,19.106c0.16,0.292,0.648,0.935,1.049,0.935l0,0
		c0.274,0,0.616-0.34,0.937-0.935l10.327-19.106c0.133-0.248,0.453-1.057,0.19-1.493c-0.215-0.359-0.848-0.435-1.339-0.435H39.844z"
		/>
	<path style="fill:#FFFFFF;" d="M50,94.78C25.308,94.78,5.22,74.692,5.22,50S25.308,5.22,50,5.22S94.78,25.308,94.78,50
		S74.692,94.78,50,94.78z M50,6.818C26.189,6.818,6.818,26.189,6.818,50c0,23.81,19.371,43.182,43.182,43.182
		c23.81,0,43.182-19.372,43.182-43.182C93.182,26.189,73.81,6.818,50,6.818z"/>
</g>
</svg>
