<?xml version="1.0" encoding="iso-8859-1"?>
<!-- Generator: Adobe Illustrator 18.1.0, SVG Export Plug-In . SVG Version: 6.00 Build 0)  -->
<!DOCTYPE svg PUBLIC "-//W3C//DTD SVG 1.1//EN" "http://www.w3.org/Graphics/SVG/1.1/DTD/svg11.dtd">
<svg version="1.1" id="Layer_1" xmlns="http://www.w3.org/2000/svg" xmlns:xlink="http://www.w3.org/1999/xlink" x="0px" y="0px"
	 viewBox="0 0 350 126" style="enable-background:new 0 0 350 126;" xml:space="preserve">
<g>
	<g>
		<path style="fill:#FFFFFF;" d="M40.237,65.839H26.511l-3.939,9.909c-0.205,0.492-0.309,0.902-0.309,1.229
			c0,0.863,1.251,1.478,3.756,1.847c0.284,0.041,0.481,0.153,0.585,0.339c0.101,0.183,0.153,0.399,0.153,0.645
			c0,0.249-0.041,0.576-0.123,0.986c-1.109-0.082-2.278-0.153-3.508-0.216c-1.232-0.06-2.442-0.093-3.631-0.093
			c-0.822,0-1.664,0.022-2.524,0.063s-1.765,0.123-2.707,0.246c-0.085-0.328-0.123-0.656-0.123-0.986
			c0-0.284,0.049-0.533,0.153-0.738c0.101-0.205,0.317-0.328,0.647-0.369c1.27-0.205,2.224-0.462,2.86-0.77
			c0.637-0.306,1.098-0.79,1.385-1.445L34.019,40.79c0.287-0.699,0.678-1.046,1.169-1.046c0.164,0,0.41,0.041,0.74,0.123
			L50.82,76.671c0.246,0.574,0.8,1.024,1.664,1.352c0.861,0.331,1.702,0.555,2.522,0.678c0.246,0.082,0.44,0.194,0.585,0.339
			c0.145,0.145,0.216,0.399,0.216,0.768c0,0.249-0.041,0.576-0.123,0.986c-1.314-0.082-2.606-0.153-3.877-0.216
			c-1.273-0.06-2.461-0.093-3.571-0.093c-1.147,0-2.461,0.033-3.939,0.093c-1.475,0.063-2.811,0.134-4,0.216
			c-0.082-0.41-0.123-0.738-0.123-0.986c0-0.369,0.071-0.623,0.216-0.768c0.142-0.145,0.276-0.216,0.399-0.216
			c1.068-0.205,1.929-0.44,2.584-0.708c0.658-0.268,0.986-0.667,0.986-1.199c0-0.246-0.082-0.555-0.246-0.923L40.237,65.839z
			 M39.25,63.315l-5.723-15.077l-5.969,15.077H39.25z"/>
		<path style="fill:#FFFFFF;" d="M86.455,50.145c-0.413,0.082-0.718,0.123-0.923,0.123c-0.535,0-0.923-0.101-1.169-0.309
			c-0.246-0.205-0.432-0.429-0.555-0.675c-1.068-2.341-2.339-4.043-3.816-5.109c-1.475-1.068-3.486-1.601-6.029-1.601
			c-0.986,0-1.921,0.134-2.8,0.399c-0.885,0.268-1.653,0.658-2.308,1.169c-0.658,0.514-1.18,1.139-1.571,1.88
			c-0.391,0.738-0.585,1.56-0.585,2.461c0,1.929,0.811,3.508,2.431,4.737c1.62,1.232,4.01,2.483,7.171,3.756
			c3.937,1.557,6.841,3.292,8.707,5.199c1.869,1.91,2.8,4.256,2.8,7.048c0,1.683-0.257,3.251-0.768,4.707
			c-0.514,1.456-1.314,2.729-2.401,3.816s-2.492,1.937-4.215,2.554c-1.724,0.615-3.795,0.923-6.215,0.923
			c-2.546,0-4.855-0.268-6.925-0.8s-3.825-1.232-5.262-2.093c-0.123-1.724-0.309-3.385-0.555-4.986s-0.533-3.199-0.861-4.8
			c0.287-0.123,0.637-0.186,1.046-0.186c0.492,0,0.871,0.115,1.139,0.339c0.265,0.227,0.5,0.585,0.708,1.076
			c1.024,2.956,2.347,5.131,3.969,6.524c1.62,1.396,3.888,2.093,6.8,2.093c1.314,0,2.461-0.183,3.448-0.552
			c0.983-0.372,1.803-0.882,2.461-1.541c0.656-0.656,1.147-1.393,1.478-2.216c0.328-0.82,0.492-1.702,0.492-2.644
			c0-2.134-0.729-3.816-2.186-5.049c-1.456-1.229-3.538-2.339-6.248-3.322c-1.762-0.656-3.363-1.344-4.8-2.063
			c-1.437-0.716-2.666-1.549-3.691-2.492c-1.027-0.945-1.817-2.041-2.371-3.292c-0.552-1.251-0.831-2.74-0.831-4.464
			c0-1.516,0.279-2.942,0.831-4.275c0.555-1.333,1.355-2.494,2.401-3.478c1.046-0.986,2.308-1.765,3.784-2.339
			c1.478-0.576,3.139-0.863,4.986-0.863c1.929,0,3.776,0.186,5.54,0.555c1.762,0.369,3.754,0.983,5.969,1.847
			c0.082,1.229,0.194,2.554,0.339,3.969C86.013,47.59,86.209,48.912,86.455,50.145z"/>
		<path style="fill:#FFFFFF;" d="M123.506,50.145c-0.413,0.082-0.718,0.123-0.923,0.123c-0.535,0-0.923-0.101-1.169-0.309
			c-0.246-0.205-0.432-0.429-0.555-0.675c-1.068-2.341-2.339-4.043-3.816-5.109c-1.475-1.068-3.486-1.601-6.029-1.601
			c-0.986,0-1.921,0.134-2.8,0.399c-0.885,0.268-1.653,0.658-2.308,1.169c-0.658,0.514-1.18,1.139-1.571,1.88
			c-0.391,0.738-0.585,1.56-0.585,2.461c0,1.929,0.811,3.508,2.431,4.737c1.62,1.232,4.01,2.483,7.171,3.756
			c3.937,1.557,6.841,3.292,8.707,5.199c1.869,1.91,2.8,4.256,2.8,7.048c0,1.683-0.257,3.251-0.768,4.707
			c-0.514,1.456-1.314,2.729-2.401,3.816s-2.492,1.937-4.215,2.554c-1.724,0.615-3.795,0.923-6.215,0.923
			c-2.546,0-4.855-0.268-6.925-0.8s-3.825-1.232-5.262-2.093c-0.123-1.724-0.309-3.385-0.555-4.986s-0.533-3.199-0.861-4.8
			c0.287-0.123,0.637-0.186,1.046-0.186c0.492,0,0.871,0.115,1.139,0.339c0.265,0.227,0.5,0.585,0.708,1.076
			c1.024,2.956,2.347,5.131,3.969,6.524c1.62,1.396,3.888,2.093,6.8,2.093c1.314,0,2.461-0.183,3.448-0.552
			c0.983-0.372,1.803-0.882,2.461-1.541c0.656-0.656,1.147-1.393,1.478-2.216c0.328-0.82,0.492-1.702,0.492-2.644
			c0-2.134-0.729-3.816-2.186-5.049c-1.456-1.229-3.538-2.339-6.248-3.322c-1.762-0.656-3.363-1.344-4.8-2.063
			c-1.437-0.716-2.666-1.549-3.691-2.492c-1.027-0.945-1.817-2.041-2.371-3.292c-0.552-1.251-0.831-2.74-0.831-4.464
			c0-1.516,0.279-2.942,0.831-4.275c0.555-1.333,1.355-2.494,2.401-3.478c1.046-0.986,2.308-1.765,3.784-2.339
			c1.478-0.576,3.139-0.863,4.986-0.863c1.929,0,3.776,0.186,5.54,0.555c1.762,0.369,3.754,0.983,5.969,1.847
			c0.082,1.229,0.194,2.554,0.339,3.969C123.063,47.59,123.26,48.912,123.506,50.145z"/>
		<path style="fill:#FFFFFF;" d="M169.844,76.177c0,0.822,0.268,1.385,0.799,1.694c0.533,0.306,1.601,0.626,3.202,0.953
			c0.41,0.082,0.615,0.369,0.615,0.861c0,0.331-0.041,0.699-0.123,1.109c-1.027-0.082-2.235-0.153-3.625-0.216
			c-1.389-0.06-2.632-0.093-3.728-0.093c-1.136,0-2.349,0.033-3.639,0.093c-1.287,0.063-2.546,0.134-3.778,0.216
			c-0.082-0.41-0.123-0.779-0.123-1.109c0-0.492,0.205-0.779,0.617-0.861c1.516-0.287,2.563-0.596,3.136-0.923
			c0.576-0.328,0.863-0.902,0.863-1.724V61.285h-19.326v14.892c0,0.822,0.268,1.385,0.8,1.694c0.533,0.306,1.601,0.626,3.199,0.953
			c0.451,0.082,0.678,0.369,0.678,0.861c0,0.331-0.041,0.699-0.123,1.109c-1.068-0.082-2.298-0.153-3.694-0.216
			c-1.393-0.06-2.644-0.093-3.754-0.093c-1.147,0-2.36,0.033-3.631,0.093c-1.273,0.063-2.543,0.134-3.816,0.216
			c-0.082-0.41-0.123-0.779-0.123-1.109c0-0.492,0.205-0.779,0.617-0.861c1.557-0.287,2.625-0.596,3.199-0.923
			c0.574-0.328,0.861-0.902,0.861-1.724V44.913c0-0.41-0.052-0.749-0.153-1.016c-0.104-0.265-0.298-0.5-0.585-0.708
			c-0.287-0.205-0.688-0.377-1.199-0.522c-0.514-0.145-1.18-0.298-2-0.462c-0.413-0.041-0.617-0.369-0.617-0.986
			c0-0.287,0.041-0.634,0.123-1.046c1.027,0.085,2.216,0.156,3.571,0.216c1.355,0.063,2.584,0.093,3.694,0.093
			c1.147,0,2.358-0.03,3.631-0.093c1.27-0.06,2.524-0.131,3.754-0.216c0.082,0.413,0.123,0.759,0.123,1.046
			c0,0.576-0.205,0.904-0.615,0.986c-1.601,0.246-2.658,0.555-3.169,0.923c-0.514,0.369-0.77,0.964-0.77,1.784v13.785h19.326V44.913
			c0-0.697-0.246-1.262-0.738-1.691c-0.494-0.432-1.541-0.77-3.139-1.016c-0.454-0.041-0.678-0.369-0.678-0.986
			c0-0.287,0.041-0.634,0.123-1.046c1.024,0.085,2.224,0.156,3.592,0.216c1.371,0.063,2.604,0.093,3.699,0.093
			c1.136,0,2.33-0.03,3.575-0.093c1.248-0.06,2.508-0.131,3.778-0.216c0.082,0.413,0.126,0.759,0.126,1.046
			c0,0.576-0.208,0.904-0.617,0.986c-1.598,0.246-2.655,0.555-3.169,0.923c-0.512,0.369-0.769,0.964-0.769,1.784V76.177z"/>
		<path style="fill:#FFFFFF;" d="M183.262,60.485c0-2.833,0.511-5.499,1.538-8.002c1.024-2.502,2.42-4.699,4.185-6.584
			c1.762-1.888,3.816-3.388,6.155-4.494c2.339-1.109,4.8-1.661,7.384-1.661c3.571,0,6.688,0.563,9.354,1.691
			c2.666,1.128,4.874,2.647,6.617,4.554c1.743,1.91,3.046,4.114,3.909,6.617c0.861,2.502,1.292,5.131,1.292,7.879
			c0,3.24-0.535,6.144-1.601,8.707c-1.068,2.565-2.535,4.74-4.401,6.524c-1.866,1.787-4.062,3.15-6.584,4.092
			c-2.524,0.945-5.223,1.418-8.095,1.418c-2.912,0-5.579-0.494-7.999-1.478c-2.423-0.986-4.505-2.39-6.248-4.215
			c-1.746-1.825-3.098-4.01-4.062-6.554C183.743,66.432,183.262,63.602,183.262,60.485z M204.432,78.27
			c1.929,0,3.694-0.369,5.294-1.106c1.601-0.74,2.975-1.765,4.122-3.079c1.147-1.311,2.041-2.871,2.677-4.677
			c0.637-1.803,0.953-3.773,0.953-5.906c0-2.956-0.306-5.693-0.923-8.218c-0.615-2.524-1.549-4.718-2.8-6.584
			c-1.251-1.869-2.83-3.333-4.737-4.401c-1.91-1.068-4.136-1.601-6.68-1.601c-1.683,0-3.292,0.32-4.83,0.953
			c-1.538,0.637-2.893,1.56-4.062,2.77c-1.169,1.21-2.104,2.699-2.8,4.461c-0.697,1.765-1.046,3.797-1.046,6.095
			c0,3.035,0.328,5.857,0.986,8.461c0.656,2.606,1.609,4.863,2.86,6.77c1.251,1.91,2.8,3.396,4.647,4.464
			C199.94,77.737,202.052,78.27,204.432,78.27z"/>
		<path style="fill:#FFFFFF;" d="M243.266,76.054c0,0.699,0.306,1.191,0.923,1.478c0.615,0.287,1.456,0.432,2.522,0.432h6.71
			c1.188,0,2.216-0.156,3.076-0.462c0.863-0.309,1.601-0.749,2.216-1.325c0.615-0.574,1.158-1.281,1.631-2.123
			s0.893-1.795,1.262-2.86c0.123-0.331,0.369-0.494,0.738-0.494c0.205,0,0.421,0.052,0.647,0.156
			c0.224,0.101,0.462,0.213,0.708,0.339c-0.287,1.229-0.566,2.532-0.831,3.907c-0.268,1.374-0.503,2.923-0.708,4.647
			c-0.041,0.451-0.164,0.738-0.369,0.861c-0.208,0.123-0.453,0.186-0.74,0.186c-0.697,0-1.568-0.052-2.614-0.153
			c-1.046-0.104-1.962-0.156-2.74-0.156H240.31c-0.943,0-2.134,0.033-3.568,0.093c-1.437,0.063-2.811,0.134-4.125,0.216
			c-0.082-0.41-0.123-0.738-0.123-0.986c0-0.574,0.205-0.902,0.617-0.983c1.68-0.287,2.83-0.604,3.445-0.953
			s0.923-0.893,0.923-1.631V44.853c0-0.822-0.287-1.407-0.861-1.757c-0.576-0.347-1.683-0.645-3.325-0.891
			c-0.205-0.041-0.358-0.153-0.462-0.339c-0.101-0.186-0.153-0.402-0.153-0.647c0-0.287,0.041-0.634,0.123-1.046
			c1.393,0.085,2.77,0.156,4.122,0.216c1.355,0.063,2.502,0.093,3.448,0.093c1.393,0,2.871-0.03,4.431-0.093
			c1.557-0.06,2.953-0.131,4.185-0.216c0.082,0.413,0.123,0.74,0.123,0.986c0,0.697-0.227,1.068-0.678,1.106
			c-1.765,0.208-3.068,0.503-3.907,0.893c-0.841,0.391-1.262,1.098-1.262,2.123V76.054z"/>
		<path style="fill:#FFFFFF;" d="M280.685,43.006v15.755h9.6c0.82,0,1.404-0.402,1.754-1.199c0.35-0.8,0.626-1.776,0.831-2.926
			c0.123-0.533,0.492-0.798,1.109-0.798c0.123,0,0.287,0.019,0.492,0.06s0.369,0.082,0.492,0.123
			c-0.082,0.904-0.153,1.929-0.216,3.079c-0.06,1.147-0.09,2.153-0.09,3.013c0,0.699,0.019,1.552,0.06,2.554
			c0.041,1.008,0.123,2.145,0.246,3.418c-0.328,0.082-0.637,0.123-0.923,0.123c-0.656,0-1.046-0.268-1.169-0.8
			c-0.205-1.147-0.481-2.123-0.831-2.923s-0.934-1.199-1.754-1.199h-9.6v14.523c0,0.863,0.552,1.437,1.661,1.724
			c1.106,0.287,2.934,0.432,5.477,0.432h3.385c1.188,0,2.227-0.175,3.109-0.525c0.88-0.347,1.661-0.82,2.339-1.415
			s1.281-1.303,1.814-2.123c0.533-0.822,1.046-1.724,1.538-2.707c0.126-0.287,0.432-0.432,0.923-0.432
			c0.205,0,0.421,0.06,0.647,0.183c0.224,0.123,0.44,0.249,0.645,0.372c-0.369,0.779-0.686,1.713-0.953,2.8
			s-0.522,2.123-0.768,3.106c-0.246,0.986-0.503,1.828-0.77,2.524s-0.606,1.046-1.016,1.046c-0.328,0-0.798-0.022-1.415-0.063
			c-0.615-0.041-1.281-0.071-2-0.09c-0.718-0.022-1.445-0.052-2.186-0.093c-0.738-0.041-1.374-0.063-1.907-0.063h-13.479
			c-1.188,0-2.461,0.033-3.814,0.093c-1.355,0.063-2.647,0.134-3.879,0.216c-0.082-0.41-0.123-0.738-0.123-0.986
			c0-0.574,0.205-0.902,0.617-0.983c1.557-0.287,2.677-0.596,3.352-0.923c0.678-0.328,1.016-0.902,1.016-1.724V44.853
			c0-0.822-0.298-1.385-0.893-1.694c-0.593-0.309-1.754-0.626-3.475-0.953c-0.413-0.082-0.617-0.432-0.617-1.046
			c0-0.205,0.011-0.38,0.033-0.525c0.019-0.142,0.049-0.295,0.09-0.462c1.765,0.123,3.243,0.208,4.431,0.249
			c1.191,0.041,2.257,0.06,3.202,0.06h12.124c1.847,0,3.445-0.06,4.8-0.186c1.355-0.123,2.257-0.183,2.707-0.183
			c0.533,0,0.893,0.339,1.076,1.016c0.186,0.675,0.339,1.486,0.462,2.429c0.126,0.945,0.268,1.951,0.432,3.016
			c0.164,1.068,0.473,1.97,0.923,2.71c-0.328,0.246-0.697,0.369-1.106,0.369c-0.535,0-0.885-0.186-1.046-0.555
			c-0.494-1.065-0.964-1.978-1.418-2.74c-0.451-0.757-0.973-1.382-1.568-1.877c-0.596-0.492-1.314-0.861-2.155-1.106
			s-1.877-0.369-3.106-0.369H280.685z"/>
		<path style="fill:#FFFFFF;" d="M336.506,50.145c-0.413,0.082-0.719,0.123-0.923,0.123c-0.535,0-0.923-0.101-1.169-0.309
			c-0.246-0.205-0.432-0.429-0.555-0.675c-1.068-2.341-2.339-4.043-3.816-5.109c-1.475-1.068-3.486-1.601-6.029-1.601
			c-0.986,0-1.921,0.134-2.8,0.399c-0.885,0.268-1.653,0.658-2.308,1.169c-0.658,0.514-1.18,1.139-1.571,1.88
			c-0.391,0.738-0.585,1.56-0.585,2.461c0,1.929,0.811,3.508,2.431,4.737c1.62,1.232,4.01,2.483,7.171,3.756
			c3.937,1.557,6.841,3.292,8.707,5.199c1.869,1.91,2.8,4.256,2.8,7.048c0,1.683-0.257,3.251-0.768,4.707
			c-0.514,1.456-1.314,2.729-2.401,3.816c-1.087,1.087-2.491,1.937-4.215,2.554c-1.724,0.615-3.795,0.923-6.215,0.923
			c-2.546,0-4.855-0.268-6.925-0.8s-3.825-1.232-5.262-2.093c-0.123-1.724-0.309-3.385-0.555-4.986s-0.533-3.199-0.861-4.8
			c0.287-0.123,0.637-0.186,1.046-0.186c0.492,0,0.871,0.115,1.139,0.339c0.265,0.227,0.5,0.585,0.708,1.076
			c1.024,2.956,2.347,5.131,3.969,6.524c1.62,1.396,3.888,2.093,6.8,2.093c1.314,0,2.461-0.183,3.448-0.552
			c0.983-0.372,1.803-0.882,2.461-1.541c0.656-0.656,1.147-1.393,1.478-2.216c0.328-0.82,0.492-1.702,0.492-2.644
			c0-2.134-0.729-3.816-2.186-5.049c-1.456-1.229-3.538-2.339-6.248-3.322c-1.762-0.656-3.363-1.344-4.8-2.063
			c-1.437-0.716-2.666-1.549-3.691-2.492c-1.027-0.945-1.817-2.041-2.371-3.292c-0.552-1.251-0.831-2.74-0.831-4.464
			c0-1.516,0.279-2.942,0.831-4.275c0.555-1.333,1.355-2.494,2.401-3.478c1.046-0.986,2.308-1.765,3.784-2.339
			c1.478-0.576,3.139-0.863,4.986-0.863c1.929,0,3.776,0.186,5.54,0.555c1.762,0.369,3.754,0.983,5.969,1.847
			c0.082,1.229,0.194,2.554,0.339,3.969C336.064,47.59,336.26,48.912,336.506,50.145z"/>
	</g>
	<g>
		<polygon style="opacity:0.25;fill:#FFFFFF;" points="164.655,25.783 111.145,25.533 164.655,25.283 		"/>
		<polygon style="opacity:0.25;fill:#FFFFFF;" points="188.013,25.283 241.523,25.533 188.013,25.783 		"/>
		<g>
			<path style="opacity:0.75;fill:#FFFFFF;" d="M178.571,22.87c0.319,0,0.478,0.127,0.478,0.382c0,0.102-0.037,0.236-0.114,0.402
				c-0.07,0.076-0.289,0.191-0.662,0.344c-0.754,0.318-1.274,0.571-1.558,0.755c0.03,0.165,0.095,0.363,0.199,0.593l0.333,0.698
				c0.284,0.574,0.411,0.911,0.383,1.014c-0.03,0.102-0.1,0.208-0.207,0.316c-0.107,0.108-0.224,0.208-0.351,0.296
				c-0.291,0.204-0.498,0.306-0.62,0.306c-0.1-0.045-0.276-0.201-0.53-0.469l-1.125-1.186c-0.192,0.089-0.418,0.258-0.679,0.507
				l-1.063,1.08c-0.326,0.318-0.533,0.484-0.617,0.492c-0.09,0.011-0.164,0.003-0.229-0.023c-0.062-0.026-0.114-0.06-0.154-0.105
				c-0.065-0.07-0.105-0.169-0.124-0.296c0.02-0.134,0.179-0.433,0.48-0.899c0.697-1.09,1.112-1.747,1.247-1.97
				c-0.1-0.108-0.249-0.251-0.445-0.43l-0.6-0.535c-0.5-0.447-0.766-0.725-0.801-0.836c-0.035-0.112-0.025-0.228,0.035-0.35
				c0.057-0.122,0.132-0.236,0.224-0.344c0.147-0.184,0.304-0.344,0.473-0.478c0.062-0.019,0.174-0.007,0.328,0.038l0.557,0.172
				c0.587,0.191,1.05,0.309,1.386,0.354c0.122-0.428,0.207-0.724,0.251-0.889l0.314-0.994c0.105-0.313,0.194-0.507,0.264-0.583
				c0.075-0.064,0.149-0.096,0.224-0.096c0.077,0,0.144,0.015,0.207,0.042c0.06,0.03,0.117,0.063,0.169,0.101
				c0.082,0.07,0.152,0.146,0.209,0.229c0.065,0.115,0.097,0.357,0.097,0.727l-0.055,1.874c0.124,0,0.274-0.012,0.453-0.038
				l0.557-0.076C178.041,22.911,178.397,22.87,178.571,22.87z"/>
		</g>
	</g>
	<g>
		<path style="fill:#FFFFFF;" d="M135.299,100.403c-0.989,0.964-2.21,1.448-3.666,1.448c-1.453,0-2.675-0.484-3.664-1.448
			c-0.989-0.967-1.483-2.169-1.483-3.609s0.494-2.642,1.483-3.609c0.989-0.967,2.21-1.448,3.664-1.448
			c1.456,0,2.677,0.481,3.666,1.448c0.989,0.967,1.483,2.169,1.483,3.609S136.288,99.436,135.299,100.403z M134.089,94.284
			c-0.667-0.688-1.486-1.035-2.456-1.035s-1.787,0.347-2.453,1.035c-0.667,0.688-1,1.527-1,2.511s0.333,1.822,1,2.511
			c0.667,0.688,1.483,1.035,2.453,1.035s1.789-0.347,2.456-1.035c0.667-0.688,1-1.527,1-2.511S134.756,94.972,134.089,94.284z"/>
		<path style="fill:#FFFFFF;" d="M141.916,93.513v2.688h4.336v1.524h-4.336v4.027h-1.65v-9.778h6.518l-0.016,1.538H141.916z"/>
		<path style="fill:#FFFFFF;" d="M155.343,101.753v-9.778h1.65v4.237h4.852v-4.237h1.653v9.778h-1.653v-4h-4.852v4H155.343z"/>
		<path style="fill:#FFFFFF;" d="M167.61,91.975h1.65v9.778h-1.65V91.975z"/>
		<path style="fill:#FFFFFF;" d="M176.334,93.262c-0.481,0-0.874,0.098-1.183,0.295c-0.309,0.197-0.462,0.492-0.462,0.888
			c0,0.396,0.153,0.699,0.462,0.91c0.309,0.208,0.962,0.434,1.964,0.678c1.003,0.24,1.759,0.585,2.267,1.022
			c0.508,0.437,0.762,1.082,0.762,1.937c0,0.852-0.322,1.544-0.967,2.076c-0.642,0.533-1.486,0.798-2.53,0.798
			c-1.53,0-2.888-0.527-4.071-1.582l1.035-1.246c0.986,0.861,2.013,1.289,3.076,1.289c0.533,0,0.953-0.115,1.265-0.344
			c0.314-0.229,0.47-0.53,0.47-0.907s-0.148-0.672-0.44-0.882c-0.295-0.21-0.8-0.402-1.519-0.574
			c-0.718-0.172-1.262-0.331-1.636-0.475c-0.372-0.145-0.705-0.333-0.992-0.566c-0.579-0.44-0.869-1.109-0.869-2.016
			c0-0.902,0.328-1.601,0.986-2.09c0.658-0.489,1.473-0.735,2.442-0.735c0.623,0,1.243,0.104,1.86,0.306
			c0.615,0.208,1.145,0.497,1.593,0.869l-0.88,1.246c-0.29-0.262-0.683-0.475-1.175-0.645
			C177.301,93.347,176.812,93.262,176.334,93.262z"/>
		<path style="fill:#FFFFFF;" d="M187.275,93.486v8.267h-1.65v-8.267h-2.964v-1.511h7.581v1.511H187.275z"/>
		<path style="fill:#FFFFFF;" d="M201.347,100.403c-0.989,0.964-2.21,1.448-3.666,1.448c-1.453,0-2.675-0.484-3.663-1.448
			c-0.989-0.967-1.483-2.169-1.483-3.609s0.494-2.642,1.483-3.609c0.989-0.967,2.21-1.448,3.663-1.448
			c1.456,0,2.677,0.481,3.666,1.448c0.989,0.967,1.483,2.169,1.483,3.609S202.336,99.436,201.347,100.403z M200.137,94.284
			c-0.667-0.688-1.486-1.035-2.456-1.035s-1.787,0.347-2.453,1.035c-0.667,0.688-1,1.527-1,2.511s0.333,1.822,1,2.511
			c0.667,0.688,1.483,1.035,2.453,1.035s1.789-0.347,2.456-1.035c0.667-0.688,1-1.527,1-2.511S200.804,94.972,200.137,94.284z"/>
		<path style="fill:#FFFFFF;" d="M214.119,95.153c0,1.612-0.705,2.628-2.115,3.049l2.56,3.551h-2.098l-2.336-3.286h-2.166v3.286
			h-1.65v-9.778h3.636c1.492,0,2.56,0.254,3.202,0.757C213.797,93.235,214.119,94.041,214.119,95.153z M211.923,96.535
			c0.336-0.29,0.503-0.754,0.503-1.391c0-0.639-0.172-1.079-0.516-1.314c-0.347-0.24-0.962-0.358-1.847-0.358h-2.098v3.497h2.054
			C210.953,96.969,211.587,96.825,211.923,96.535z"/>
		<path style="fill:#FFFFFF;" d="M221.561,101.753h-1.68v-3.86l-3.636-5.917h1.806l2.669,4.45l2.672-4.45h1.806l-3.636,5.917
			V101.753z"/>
	</g>
</g>
</svg>
