<?xml version="1.0" encoding="iso-8859-1"?>
<!-- Generator: Adobe Illustrator 18.1.0, SVG Export Plug-In . SVG Version: 6.00 Build 0)  -->
<!DOCTYPE svg PUBLIC "-//W3C//DTD SVG 1.1//EN" "http://www.w3.org/Graphics/SVG/1.1/DTD/svg11.dtd">

<svg version="1.1" id="Layer_1" xmlns="http://www.w3.org/2000/svg" xmlns:xlink="http://www.w3.org/1999/xlink" x="0px" y="0px"
	 viewBox="0 0 101 101" style="enable-background:new 0 0 101 101;" xml:space="preserve">
<g>
	<defs>
		<rect id="SVGID_1_" width="101" height="101" style=""/>
	</defs>
	<clipPath id="SVGID_2_">
		<use xlink:href="#SVGID_1_"  style="overflow:visible;"/>
	</clipPath>
	<path style="clip-path:url(#SVGID_2_);" d="M56.45,57.647H35.261l0.836-2.295h19.521l-9.5-26.095l4.594-12.001h1.356l20.249,53.025
		c3.547,8.766,7.621,11.897,13.047,12.628v0.836H54.675v-0.836c5.638-0.315,8.037-1.983,8.037-5.95c0-2.191-0.832-4.802-2.188-8.248
		L56.45,57.647z M15.637,83.744v-0.836c3.758-0.627,6.265-1.775,8.977-4.386c3.446-3.235,5.325-7.098,7.101-11.48l0.832,0.416
		c-0.208,0.94-1.044,4.802-1.044,7.725c0,5.117,3.758,7.41,8.769,7.725v0.836H15.637z"/>
</g>
<path d="M5.139,5.139h90.719v90.719H5.139V5.139z M0,101h101V0H0V101z"/>
</svg>
 



